<svg width="172" height="49" viewBox="0 0 172 49" fill="none" xmlns="http://www.w3.org/2000/svg">
<rect width="55" height="49"/>
<path d="M63.7001 31.5L70.5641 15.99H72.3021L79.1661 31.5H77.0761L75.1841 27.1L76.1301 27.628H66.7141L67.6601 27.1L65.7901 31.5H63.7001ZM71.4001 18.3L67.9681 26.418L67.4401 25.956H75.4041L74.8981 26.418L71.4441 18.3H71.4001ZM88.2456 31.698C86.5883 31.698 85.1803 31.3827 84.0216 30.752C82.8776 30.1067 82.0049 29.19 81.4036 28.002C80.8169 26.814 80.5236 25.3987 80.5236 23.756C80.5236 22.1133 80.8243 20.698 81.4256 19.51C82.0269 18.322 82.8849 17.4053 83.9996 16.76C85.1289 16.1147 86.4783 15.792 88.0476 15.792C88.7809 15.792 89.4776 15.8653 90.1376 16.012C90.7976 16.1587 91.4063 16.3713 91.9636 16.65C92.5356 16.9287 93.0269 17.2807 93.4376 17.706L92.6896 19.312C91.9856 18.7107 91.2596 18.278 90.5116 18.014C89.7783 17.75 88.9569 17.618 88.0476 17.618C86.3023 17.618 84.9676 18.1533 84.0436 19.224C83.1343 20.28 82.6796 21.7907 82.6796 23.756C82.6796 25.7653 83.1489 27.2907 84.0876 28.332C85.0409 29.3733 86.4489 29.894 88.3116 29.894C89.0009 29.894 89.6683 29.828 90.3136 29.696C90.9736 29.564 91.6043 29.3807 92.2056 29.146L91.7656 30.246V24.944H87.9156V23.36H93.5256V30.598C93.1003 30.818 92.5943 31.0087 92.0076 31.17C91.4209 31.3313 90.8049 31.456 90.1596 31.544C89.5143 31.6467 88.8763 31.698 88.2456 31.698ZM97.1229 31.5V15.99H103.393C105.065 15.99 106.348 16.386 107.243 17.178C108.152 17.9553 108.607 19.0627 108.607 20.5C108.607 21.4387 108.402 22.2453 107.991 22.92C107.58 23.58 106.986 24.086 106.209 24.438C105.432 24.79 104.493 24.966 103.393 24.966L103.613 24.658H104.097C104.684 24.658 105.19 24.8047 105.615 25.098C106.055 25.3913 106.444 25.8607 106.781 26.506L109.509 31.5H107.243L104.559 26.55C104.354 26.1393 104.119 25.824 103.855 25.604C103.606 25.384 103.312 25.2373 102.975 25.164C102.652 25.076 102.264 25.032 101.809 25.032H99.1689V31.5H97.1229ZM99.1689 23.448H103.063C104.236 23.448 105.116 23.206 105.703 22.722C106.29 22.2233 106.583 21.4973 106.583 20.544C106.583 19.5907 106.29 18.872 105.703 18.388C105.116 17.904 104.236 17.662 103.063 17.662H99.1689V23.448ZM118.44 31.698C117.34 31.698 116.35 31.5147 115.47 31.148C114.59 30.7813 113.835 30.246 113.204 29.542C112.574 28.838 112.09 28.002 111.752 27.034C111.415 26.0513 111.246 24.9513 111.246 23.734C111.246 22.5167 111.415 21.424 111.752 20.456C112.09 19.4733 112.566 18.6373 113.182 17.948C113.813 17.244 114.568 16.7087 115.448 16.342C116.343 15.9753 117.34 15.792 118.44 15.792C119.54 15.792 120.53 15.9753 121.41 16.342C122.29 16.7087 123.046 17.2367 123.676 17.926C124.307 18.6153 124.784 19.4513 125.106 20.434C125.444 21.402 125.612 22.4947 125.612 23.712C125.612 24.9293 125.444 26.0293 125.106 27.012C124.769 27.9947 124.285 28.838 123.654 29.542C123.038 30.246 122.29 30.7813 121.41 31.148C120.53 31.5147 119.54 31.698 118.44 31.698ZM118.44 29.894C119.496 29.894 120.398 29.652 121.146 29.168C121.894 28.684 122.466 27.98 122.862 27.056C123.273 26.132 123.478 25.0247 123.478 23.734C123.478 22.4287 123.28 21.3213 122.884 20.412C122.488 19.488 121.916 18.7913 121.168 18.322C120.42 17.838 119.511 17.596 118.44 17.596C117.384 17.596 116.475 17.838 115.712 18.322C114.964 18.7913 114.392 19.488 113.996 20.412C113.6 21.3213 113.402 22.4287 113.402 23.734C113.402 25.0247 113.6 26.132 113.996 27.056C114.392 27.98 114.964 28.684 115.712 29.168C116.475 29.652 117.384 29.894 118.44 29.894ZM131.608 31.5V17.728H126.042V15.99H139.22V17.728H133.654V31.5H131.608ZM146.843 31.698C145.743 31.698 144.753 31.5147 143.873 31.148C142.993 30.7813 142.237 30.246 141.607 29.542C140.976 28.838 140.492 28.002 140.155 27.034C139.817 26.0513 139.649 24.9513 139.649 23.734C139.649 22.5167 139.817 21.424 140.155 20.456C140.492 19.4733 140.969 18.6373 141.585 17.948C142.215 17.244 142.971 16.7087 143.851 16.342C144.745 15.9753 145.743 15.792 146.843 15.792C147.943 15.792 148.933 15.9753 149.813 16.342C150.693 16.7087 151.448 17.2367 152.079 17.926C152.709 18.6153 153.186 19.4513 153.509 20.434C153.846 21.402 154.015 22.4947 154.015 23.712C154.015 24.9293 153.846 26.0293 153.509 27.012C153.171 27.9947 152.687 28.838 152.057 29.542C151.441 30.246 150.693 30.7813 149.813 31.148C148.933 31.5147 147.943 31.698 146.843 31.698ZM146.843 29.894C147.899 29.894 148.801 29.652 149.549 29.168C150.297 28.684 150.869 27.98 151.265 27.056C151.675 26.132 151.881 25.0247 151.881 23.734C151.881 22.4287 151.683 21.3213 151.287 20.412C150.891 19.488 150.319 18.7913 149.571 18.322C148.823 17.838 147.913 17.596 146.843 17.596C145.787 17.596 144.877 17.838 144.115 18.322C143.367 18.7913 142.795 19.488 142.399 20.412C142.003 21.3213 141.805 22.4287 141.805 23.734C141.805 25.0247 142.003 26.132 142.399 27.056C142.795 27.98 143.367 28.684 144.115 29.168C144.877 29.652 145.787 29.894 146.843 29.894ZM157.193 31.5V15.99H158.755L168.413 28.794H167.863V15.99H169.777V31.5H168.237L158.579 18.674H159.085V31.5H157.193Z" fill="#0E0D0D"/>
</svg>
